<?xml version="1.0" encoding="UTF-8"?>
<svg width="211px" height="105px" viewBox="0 0 211 105" version="1.1" xmlns="http://www.w3.org/2000/svg" xmlns:xlink="http://www.w3.org/1999/xlink">
    <!-- Generator: Sketch 53.2 (72643) - https://sketchapp.com -->
    <title>signature</title>
    <desc>Created with Sketch.</desc>
    <g id="Page-1" stroke="none" stroke-width="1" fill="none" fill-rule="evenodd">
        <g id="Group-2">
            <g id="Group">
                <path d="M16.069,73.798 C16.069,73.798 11.558,77.02 5.972,76.376 C0.387,75.731 -0.472,73.368 4.469,58.546 C9.409,43.723 31.106,14.723 42.706,13.864 C54.306,13.005 58.388,46.731 52.373,73.154 C46.358,99.577 43.995,107.525 41.417,100.866 C38.839,94.206 47.576,79.671 51.013,71.794 C54.45,63.917 63.902,55.038 67.482,54.895 C71.062,54.751 69.917,66.639 68.628,70.075 C67.339,73.513 67.626,76.233 72.924,70.218 C78.223,64.203 90.825,55.898 86.816,76.807 C86.816,76.807 91.685,48.594 95.552,39.285 C99.419,29.976 117.033,5.344 126.486,1.334" id="Path"></path>
                <path d="M15.615,73.021 C12.493,75.141 6.298,77.155 2.955,74.471 C-0.25,71.899 4.417,61.583 5.336,58.786 C8.531,49.058 15.009,40.036 21.318,32.11 C26.306,25.844 34.081,15.765 42.705,14.765 C51.725,13.719 53.365,33.252 53.862,38.654 C55.099,52.102 53.261,65.34 50.241,78.42 C48.984,83.864 47.701,89.309 46.179,94.687 C45.95,95.5 43.501,102.675 42.945,101.941 C40.356,98.52 42.56,93.035 43.829,89.525 C45.867,83.885 48.849,78.614 51.369,73.186 C53.87,67.799 57.357,63.258 61.763,59.274 C62.888,58.256 67.388,53.976 68.54,57.148 C69.392,59.491 68.992,62.511 68.759,64.937 C68.545,67.167 66.238,71.581 67.256,73.722 C68.445,76.226 71.433,73.062 72.423,72.091 C75.285,69.282 77.776,66.291 81.613,64.74 C88.481,61.965 86.518,73.334 85.946,76.567 C86.525,76.726 87.103,76.886 87.681,77.046 C89.845,64.556 91.546,50.806 96.598,39.11 C99.595,32.172 104.383,25.789 108.911,19.799 C113.691,13.477 119.543,5.529 126.937,2.11 C127.99,1.623 127.075,0.071 126.029,0.555 C119.07,3.774 113.727,10.836 109.081,16.668 C103.929,23.134 98.984,30.08 95.353,37.531 C92.056,44.297 90.78,52.263 89.227,59.561 C88.026,65.206 86.932,70.879 85.947,76.566 C85.75,77.7 87.48,78.187 87.682,77.045 C88.424,72.861 90.383,62.849 83.625,62.505 C81.379,62.391 79.045,63.895 77.287,65.098 C76.203,65.84 75.201,66.707 74.23,67.589 C73.338,68.4 68.826,72.281 68.883,72.811 C68.728,71.384 69.767,69.53 70.075,68.134 C70.463,66.378 70.616,64.558 70.735,62.768 C70.873,60.701 71.201,55.746 68.913,54.448 C63.345,51.291 54.448,64.234 52.146,67.76 C49.445,71.897 47.585,76.858 45.449,81.31 C43.203,85.988 41.006,90.854 40.198,96.014 C40.017,97.166 40.54,106.06 43.973,103.774 C45.255,102.92 45.803,101.343 46.351,99.973 C48.043,95.748 49.02,91.184 50.106,86.779 C53.206,74.206 55.819,61.827 56.025,48.833 C56.147,41.136 55.481,33.314 53.542,25.851 C52.41,21.493 50.555,16.705 46.743,14.024 C38.484,8.216 25.894,23.893 21.684,28.842 C12.119,40.089 4.453,52.83 0.966,67.255 C0.223,70.329 -0.549,74.527 2.653,76.43 C6.636,78.796 12.995,76.971 16.524,74.576 C17.477,73.927 16.578,72.367 15.615,73.021 L15.615,73.021 Z" id="Path" fill="#000000" fill-rule="nonzero"></path>
            </g>
            <g id="Group" transform="translate(104.000000, 26.000000)">
                <path d="M1.29,46.223 C1.29,46.223 0.144,43.932 3.152,39.349 C6.16,34.766 10.026,24.884 6.733,25.743 C3.439,26.602 -2.289,34.336 4.155,32.761 C10.599,31.186 25.923,24.74 31.221,30.899 C36.521,37.057 34.229,43.358 32.08,42.929 C29.933,42.499 30.361,38.632 31.077,35.196 C31.794,31.758 33.941,27.033 38.81,21.591 C43.68,16.149 64.16,-0.893 65.735,2.114" id="Path"></path>
                <path d="M2.157,45.984 C1.04,43.288 3.823,40.075 5.081,37.868 C6.539,35.309 7.661,32.502 8.482,29.68 C9.144,27.409 9.11,23.908 5.85,25.114 C3.83,25.861 -0.451,29.687 0.365,32.244 C1.525,35.882 8.11,32.563 10.306,31.895 C17.639,29.664 27.555,26.135 32.378,34.18 C33.156,35.641 33.553,37.195 33.566,38.841 C33.811,41.008 33.087,41.243 31.394,39.547 C31.292,37.555 31.913,35.344 32.484,33.436 C33.788,29.084 36.825,25.083 39.839,21.797 C42.043,19.395 63.061,0.243 65.097,2.75 C65.829,3.652 67.095,2.37 66.37,1.478 C62.974,-2.703 45.849,13.742 43.437,15.88 C38.309,20.427 33.819,25.471 31.139,31.869 C30.404,33.624 27.424,45.262 32.812,43.78 C38.435,42.233 33.814,32.811 31.996,30.445 C28.427,25.801 20.773,27.407 15.966,28.474 C12.465,29.251 9.056,30.415 5.62,31.431 C-1.738,33.605 8.676,22.57 6.434,30.266 C5.228,34.406 2.71,37.768 0.924,41.611 C0.299,42.955 -0.185,45.005 0.42,46.463 C0.859,47.519 2.602,47.056 2.157,45.984 L2.157,45.984 Z" id="Path" fill="#000000" fill-rule="nonzero"></path>
            </g>
            <g id="Group" transform="translate(154.000000, 46.000000)">
                <path d="M1.486,10.9 C1.486,10.9 5.996,6.246 5.495,5.315 C4.994,4.384 0.77,9.324 0.842,12.261 C0.913,15.197 4.566,14.767 11.582,11.187 C18.6,7.606 22.537,4.6 21.177,8.323 C19.817,12.047 20.962,12.978 26.333,10.042 C31.703,7.106 36.644,4.099 37.217,6.032 C37.79,7.966 36.214,8.467 38.506,8.467 C40.798,8.467 44.377,3.168 50.822,2.237 C57.266,1.306 54.903,2.524 55.047,1.449" id="Path"></path>
                <path d="M2.123,11.537 C3.555,10.042 6.452,7.597 6.395,5.315 C6.387,5.025 6.235,4.663 5.949,4.538 C2.562,3.057 -1.698,11.866 0.927,14.471 C2.757,16.288 7.116,14.255 8.81,13.491 C11.936,12.079 14.93,10.432 17.946,8.803 C21.321,6.979 19.774,7.667 19.776,10.214 C19.777,12.269 20.958,12.796 22.834,12.537 C25.303,12.197 27.815,10.254 29.927,9.089 C31.935,7.982 35.432,5.03 36.361,8.405 C36.867,10.245 39.781,9.1 40.773,8.515 C42.627,7.424 44.243,5.944 46.096,4.831 C48.006,3.685 53.302,1.972 54.901,2.699 C55.052,2.14 55.204,1.581 55.355,1.022 C55.553,1.165 55.751,1.307 55.949,1.449 C55.856,0.3 54.055,0.291 54.148,1.449 C54.209,2.195 54.554,2.757 55.355,2.823 C56.226,2.894 56.618,1.513 55.809,1.146 C53.962,0.306 51.029,1.28 49.147,1.657 C45.59,2.37 42.748,4.965 39.865,6.962 C36.806,9.081 39.343,5.42 37.159,4.728 C34.124,3.766 29.893,7.054 27.474,8.388 C25.962,9.222 20.69,12.789 22.046,8.564 C22.218,8.027 22.555,7.098 22.204,6.541 C21.456,5.354 20.2,5.707 19.067,6.241 C14.159,8.556 9.64,11.73 4.34,13.14 C2.282,11.65 1.863,10.182 3.082,8.736 C3.474,8.208 3.865,7.679 4.257,7.151 C5.175,6.515 5.114,6.292 4.073,6.481 C3.219,7.859 1.97,9.097 0.849,10.267 C0.047,11.101 1.318,12.375 2.123,11.537 L2.123,11.537 Z" id="Path" fill="#000000" fill-rule="nonzero"></path>
            </g>
        </g>
    </g>
</svg>